<?xml version="1.0" standalone="no"?>
<!DOCTYPE svg PUBLIC "-//W3C//DTD SVG 20010904//EN"
 "http://www.w3.org/TR/2001/REC-SVG-20010904/DTD/svg10.dtd">
<svg version="1.0" xmlns="http://www.w3.org/2000/svg"
 width="512.000000pt" height="512.000000pt" viewBox="0 0 512.000000 512.000000"
 preserveAspectRatio="xMidYMid meet">
<metadata>
Created by potrace 1.11, written by Peter Selinger 2001-2013
</metadata>
<g transform="translate(0.000000,512.000000) scale(0.100000,-0.100000)"
fill="#000000" stroke="none">
<path d="M850 4730 c-188 -32 -352 -167 -428 -355 -31 -76 -33 -91 -36 -262
l-3 -143 2172 0 c1729 0 2174 3 2177 13 10 26 1 265 -12 317 -32 133 -99 236
-218 332 -28 23 -93 56 -162 81 l-55 22 -1695 1 c-932 1 -1715 -2 -1740 -6z
m2552 -265 c28 -12 50 -54 51 -104 3 -89 -41 -134 -131 -133 -47 0 -59 4 -86
31 -28 29 -31 37 -31 96 0 56 3 68 26 91 40 40 104 47 171 19z m1055 -33 c17
-26 21 -45 19 -89 -1 -48 -6 -59 -34 -84 -36 -32 -79 -39 -149 -24 -50 11 -84
111 -60 178 28 81 173 93 224 19z m-548 33 c34 -17 62 -72 59 -117 -4 -68 -45
-116 -103 -119 -66 -4 -85 2 -118 34 -28 28 -34 42 -35 83 -3 56 23 109 61
124 34 14 105 12 136 -5z"/>
<path d="M1210 3724 c0 -7 -130 -10 -410 -10 -357 1 -411 -1 -414 -14 -2 -8
-3 -143 -2 -300 1 -163 -2 -290 -7 -297 -5 -7 -6 -13 -1 -13 11 0 11 -1970 1
-1987 -5 -7 -4 -13 0 -13 5 0 8 -46 8 -102 -2 -174 47 -306 154 -420 69 -74
141 -120 243 -154 l73 -25 1695 0 c1283 -1 1707 2 1745 11 193 47 354 197 417
390 21 65 21 65 22 1492 1 1265 0 1427 -14 1430 -8 2 -169 3 -358 3 -189 -1
-346 3 -348 7 -3 5 -11 5 -17 1 -19 -13 -1977 -11 -1977 2 0 7 -3 7 -8 -1 -10
-14 -784 -15 -794 0 -5 8 -8 8 -8 0z m36 -623 c21 -16 182 -172 357 -348 l317
-318 -337 -337 c-192 -191 -351 -342 -368 -348 -16 -7 -47 -12 -67 -12 -41 1
-102 28 -93 42 3 6 -1 7 -9 4 -11 -4 -25 9 -46 42 -34 54 -41 125 -16 172 8
15 107 119 220 231 l205 205 -206 207 c-114 114 -212 219 -220 233 -19 37 -19
106 2 146 38 73 94 109 171 110 41 0 59 -6 90 -29z m1721 -1063 c69 -31 103
-88 103 -173 0 -117 -53 -182 -158 -194 -31 -3 -181 -5 -332 -5 -227 1 -281 4
-305 17 -33 17 -67 50 -83 83 -30 57 -14 184 28 229 50 53 60 55 402 55 231 0
325 -3 345 -12z"/>
</g>
</svg>
